<svg width="22" height="22" fill="none" xmlns="http://www.w3.org/2000/svg"><g clip-path="url(#a)" fill="#474747"><path d="M18.3 1C20 1 21.1 2 21.1 3.6v3.6a1 1 0 1 1-1.9 0V3.7c0-.5-.4-1-.9-1h-3.6a1 1 0 1 1 0-1.8h3.6ZM20.2 13.8c.5 0 .9.4.9.9v3.6c0 1.6-1.2 2.8-2.8 2.8h-3.6a1 1 0 1 1 0-1.9h3.6c.5 0 1-.4 1-.9v-3.6c0-.5.4-1 .9-1ZM3.7 19.3h3.6a1 1 0 0 1 0 1.8H3.7a2.7 2.7 0 0 1-2.8-2.8v-3.6a1 1 0 1 1 1.9 0v3.6c0 .5.4 1 .9 1ZM1.8 8.2a1 1 0 0 1-.9-.9V3.7C1 2 2.1.9 3.7.9h3.6a1 1 0 0 1 0 1.8H3.7a1 1 0 0 0-1 1v3.6c0 .5-.4 1-.9 1Z"/><path fill-rule="evenodd" clip-rule="evenodd" d="M11 14.7a3.7 3.7 0 1 0 0-7.4 3.7 3.7 0 0 0 0 7.4Zm0-1.9a1.8 1.8 0 1 1 0-3.6 1.8 1.8 0 0 1 0 3.6Z"/></g><defs><clipPath id="a"><path fill="#fff" d="M0 0h22v22H0z"/></clipPath></defs></svg>