<svg width="196" height="49" fill="none" xmlns="http://www.w3.org/2000/svg"><path fill-rule="evenodd" clip-rule="evenodd" d="M118 27.2c-3 0-5.6 1.5-7.1 3.8l-9-5a8 8 0 0 0 1-3.8c0-.8-.2-1.6-.5-2.4l9.4-5.2A8.4 8.4 0 0 0 126.4 9c0-4.6-3.8-8.3-8.4-8.3a8.3 8.3 0 0 0-8.4 8.3l.3 2.4-9.3 5.2A8.4 8.4 0 0 0 86 22.2a8.3 8.3 0 0 0 13.5 6.6l10.1 5.8v.9c0 4.6 3.7 8.3 8.4 8.3 4.6 0 8.4-3.7 8.4-8.3 0-4.6-3.8-8.3-8.4-8.3Z" fill="#fff"/><path d="M37.2 32.6a5 5 0 0 0-.3-2c-.2-.5-.6-1-1.2-1.4-.5-.5-1.3-1-2.2-1.3a32 32 0 0 0-3.7-1.3c-1.5-.4-3-1-4.2-1.5-1.2-.5-2.3-1.2-3.1-1.9a7 7 0 0 1-2.7-5.7 7.4 7.4 0 0 1 2.8-5.9c1-.8 2-1.4 3.4-1.8a14 14 0 0 1 4.3-.6c2.4 0 4.3.4 6 1.3 1.6.9 2.9 2 3.7 3.5.9 1.4 1.3 2.9 1.3 4.5h-4.1c0-1.2-.3-2.2-.8-3a5.1 5.1 0 0 0-2.2-2.2c-1-.5-2.3-.8-3.9-.8-1.5 0-2.7.2-3.6.7-1 .4-1.7 1-2.2 1.8-.4.7-.7 1.6-.7 2.5 0 .7.2 1.2.5 1.8.2.5.7 1 1.3 1.4.6.5 1.3 1 2.2 1.3 1 .4 2 .7 3.4 1 1.7.6 3.3 1.1 4.5 1.7 1.3.6 2.4 1.3 3.2 2a7 7 0 0 1 1.9 2.6c.4 1 .6 2 .6 3.2a7.4 7.4 0 0 1-3 6c-1 .8-2 1.3-3.4 1.7a16.2 16.2 0 0 1-8.8 0c-1.3-.4-2.6-1-3.7-1.8-1.2-.8-2-1.7-2.8-2.9a8 8 0 0 1-1-4h4.1c0 1 .2 2 .7 2.7.4.7 1 1.3 1.7 1.8a8 8 0 0 0 2.4 1.1 12.2 12.2 0 0 0 6.6-.2c1-.4 1.7-1 2.2-1.7.6-.8.8-1.6.8-2.6Zm36.4-9.8v3.3H56.7v-3.3h17ZM57.4 9.6v30.8h-4.2V9.6h4.2Zm19.8 0v30.8h-4V9.6h4ZM136.1 9.6h10.4c2.3 0 4.3.4 6 1 1.5.8 2.8 1.8 3.6 3.2.9 1.4 1.3 3 1.3 5a8.5 8.5 0 0 1-3.4 6.9 11 11 0 0 1-3.8 1.8l-1.2.4h-9.7v-3.3h7.3a8 8 0 0 0 3.7-.8 5.4 5.4 0 0 0 3-5c0-1.1-.2-2.2-.7-3a4.7 4.7 0 0 0-2.2-2.1c-1-.5-2.3-.7-4-.7h-6.1v27.4H136V9.6Zm18.3 30.8-7.6-14h4.3l7.7 13.7v.3h-4.4Zm35.2-3.4v3.4H173V37h16.5ZM173.9 9.6v30.8h-4.1V9.6h4.1Zm13.5 13.2v3.3h-14.3v-3.3h14.3Zm2-13.2V13H173V9.6h16.3Z" fill="#fff"/></svg>