<svg width="18" height="19" fill="none" xmlns="http://www.w3.org/2000/svg"><path d="m10.9 13.8.4.2.2-.3c.6-1 1.6-1.5 2.7-1.5 1.9 0 3.3 1.4 3.3 3.1 0 1.8-1.4 3.2-3.3 3.2a3.2 3.2 0 0 1-3.2-3.2V14.7l-.2-.2L6.3 12l-.3-.2-.3.2c-.5.4-1.2.7-2 .7A3.2 3.2 0 0 1 .5 9.5c0-1.7 1.4-3.2 3.2-3.2 1 0 1.8.4 2.4 1l.3.4.3-.2L11 5l.4-.2-.1-.3a3 3 0 0 1-.2-1C11 2 12.4.6 14.2.6c1.9 0 3.3 1.4 3.3 3.2 0 1.7-1.4 3.1-3.3 3.1-.9 0-1.7-.4-2.3-1l-.3-.3-.3.2L7 8l-.4.2.1.4.2.9c0 .5-.1 1-.4 1.4l-.2.4.4.3 4 2.2Z" fill="#474747" stroke="#474747"/></svg>