<svg width="34" height="24" fill="none" xmlns="http://www.w3.org/2000/svg"><path d="M10 .1c.6 0 1 .2 1.5.6.4.4.6 1 .6 1.7 0 .6-.2 1.2-.7 1.6a2 2 0 0 1-1.4.5A2 2 0 0 1 8.5 4C8.1 3.6 8 3 8 2.3c0-.6.2-1.2.6-1.6A2 2 0 0 1 10 .1Zm13.3.1c.6 0 1 .2 1.5.6.4.4.6 1 .6 1.6 0 .7-.2 1.2-.6 1.6a2 2 0 0 1-1.5.6 2 2 0 0 1-1.5-.6c-.4-.4-.6-1-.6-1.6 0-.7.2-1.2.6-1.6a2 2 0 0 1 1.5-.6Zm-6 23.6H17A22.6 22.6 0 0 1 6.2 21a16 16 0 0 1-3.4-2.6c-1-.9-1.6-1.8-2-2.6l2-.8a13.2 13.2 0 0 0 4.8 3.5c1.3.5 2.6 1 4.2 1.2 1.5.3 3.3.5 5.2.5h.3a26.4 26.4 0 0 0 9.3-1.7c1.2-.5 2.2-1 3-1.6a10 10 0 0 0 1.9-1.8l2 .8c-.4.9-1 1.7-2 2.6-.9 1-2 1.8-3.4 2.6a22.5 22.5 0 0 1-10.8 2.6Z" fill="#fff"/></svg>